<?xml version="1.0" standalone="no"?><!DOCTYPE svg PUBLIC "-//W3C//DTD SVG 1.1//EN" "http://www.w3.org/Graphics/SVG/1.1/DTD/svg11.dtd"><svg t="1762511968506" class="icon" viewBox="0 0 1334 1024" version="1.1" xmlns="http://www.w3.org/2000/svg" p-id="4162" xmlns:xlink="http://www.w3.org/1999/xlink" width="260.546875" height="200"><path d="M1318.787879 837.818182c0 27.927273-6.206061 55.854545-21.721212 77.575757L884.363636 453.042424 1290.860606 99.29697c15.515152 24.824242 24.824242 55.854545 24.824242 86.884848l3.103031 651.636364z m-651.636364-297.890909l567.854546-496.484849C1210.181818 31.030303 1185.357576 21.721212 1157.430303 21.721212H179.975758c-27.927273 0-55.854545 6.206061-77.575758 21.721212l564.751515 496.484849z m155.151515-31.030303l-130.327272 114.812121c-15.515152 15.515152-37.236364 15.515152-52.751516 0l-130.327272-114.812121L93.090909 977.454545c24.824242 15.515152 55.854545 24.824242 86.884849 24.824243h977.454545c31.030303 0 58.957576-9.309091 86.884849-24.824243L822.30303 508.89697zM40.339394 99.29697C24.824242 124.121212 15.515152 155.151515 15.515152 183.078788v651.636364c0 27.927273 6.206061 55.854545 21.721212 77.575757l412.70303-462.351515L40.339394 99.29697z" fill="#09aec0" p-id="4163"></path></svg>